<svg xmlns="http://www.w3.org/2000/svg" version="1.1" xmlns:xlink="http://www.w3.org/1999/xlink" xmlns:svgjs="http://svgjs.dev/svgjs" viewBox="0 0 640 800"><defs><linearGradient x1="50%" y1="0%" x2="50%" y2="100%" id="ccchaos-grad"><stop stop-color="hsl(206, 75%, 49%)" stop-opacity="1" offset="0%"></stop><stop stop-color="hsl(331, 90%, 56%)" stop-opacity="1" offset="100%"></stop></linearGradient></defs><g stroke-width="2" stroke="url(#ccchaos-grad)" fill="none" stroke-linecap="round"><path d="M312.05 126.86C321.73 125.71 331.57 124.8 341.55 124.15 351.55 123.27 361.73 122.74 372.06 122.57 382.45 122.32 393.02 122.52 403.75 123.2 414.56 123.93 425.53 125.2 436.61 127.03 447.74 129.02 458.93 131.61 470.11 134.8 481.21 138.2 492.17 142.22 502.85 146.83 513.23 151.67 523.13 157.1 532.36 163.06 541 169.24 548.74 175.93 555.39 183.08 561.2 190.42 565.75 198.18 568.92 206.3 571.2 214.56 572.13 223.15 571.76 232.01 570.8 240.98 568.86 250.18 566.17 259.57 563.6 269.02 560.87 278.64 558.33 288.39 556.81 298.17 556.11 308.07 556.51 318.03 558.63 328.01 562.17 338.06 567.15 348.12 573.85 358.21 581.72 368.31 590.43 378.39 599.93 388.48 609.41 398.54 618.31 408.54 626.49 418.54 632.9 428.23 637.19 437.58 639.69 446.91 639.68 455.89 637.23 464.5 632.88 473.07 626.39 481.26 618.1 489.03 608.68 496.76 598.16 504.06 587 510.93 575.77 517.76 564.58 524.16 553.75 530.12 543.69 536.06 534.37 541.6 525.9 546.74 518.55 551.93 512.07 556.77 506.38 561.32 499.62 568.24 489.18 581.61 484.52 588.37 481.64 593.29 478.41 598.31 474.71 603.47 470.99 609.15 466.67 615.04 461.71 621.16 456.6 627.82 450.8 634.7 444.36 641.76 437.74 649.26 430.5 656.85 422.69 664.42 414.75 672.2 406.3 679.77 397.4 686.97 388.42 694.03 379.05 700.47 369.33 706.11 359.59 711.24 349.54 715.32 339.21 718.18 328.89 720.23 318.54 720.89 308.22 720.18 297.9 718.61 287.6 715.74 277.33 711.67 267.06 706.89 256.82 701.09 246.63 694.41 236.44 687.3 226.29 679.54 216.23 671.27 206.18 662.89 196.22 654.2 186.41 645.34 176.66 636.62 167.09 627.87 157.77 619.16 148.58 610.76 139.71 602.47 131.21 594.32 122.95 586.54 115.14 578.9 107.85 571.39 100.87 564.23 94.46 557.14 88.68 550.11 83.22 543.36 78.38 536.58 74.19 529.75 70.25 523.12 66.89 516.35 64.09 509.41 61.38 502.6 59.12 495.55 57.26 488.27 55.29 481.04 53.58 473.52 52.1 465.71 50.32 457.91 48.68 449.8 47.14 441.37 45.22 432.93 43.4 424.18 41.7 415.11 39.68 406.03 37.85 396.64 36.31 386.96 34.64 377.28 33.44 367.55 32.78 357.81 32.25 348.08 32.4 338.35 33.26 328.68 34.44 319.03 36.4 309.45 39.15 299.99 42.27 290.57 46.15 281.3 50.74 272.22 55.63 263.21 61.14 254.42 67.18 245.9 73.37 237.48 79.96 229.37 86.87 221.6 93.74 213.98 100.82 206.73 108.04 199.9 115.06 193.23 122.16 187.01 129.31 181.28 136.19 175.7 143.11 170.62 150.06 166.05 156.74 161.62 163.5 157.7 170.34 154.29 176.96 150.97 183.73 148.12 190.68 145.74 197.46 143.36 204.47 141.4 211.73 139.83 218.89 138.16 226.34 136.81 234.09 135.76 241.77 134.5 249.79 133.47 258.12 132.65 266.43 131.54 275.07 130.59 284.06 129.8 293.03 128.66 302.35 127.68 312.04 126.86" stroke-dasharray="11 10" transform="rotate(0, 320, 400)" opacity="0.21"></path><path d="M317.91 138.23C327.35 137.1 336.96 136.2 346.71 135.55 356.49 134.68 366.43 134.14 376.52 133.95 386.65 133.66 396.93 133.8 407.34 134.39 417.78 135.01 428.33 136.14 438.92 137.79 449.49 139.57 460.05 141.93 470.48 144.84 480.77 147.95 490.81 151.63 500.47 155.88 509.79 160.34 518.53 165.35 526.54 170.88 533.97 176.63 540.48 182.86 545.92 189.54 550.6 196.4 554.11 203.68 556.37 211.32 557.9 219.1 558.27 227.22 557.54 235.6 556.43 244.1 554.55 252.83 552.14 261.77 549.99 270.77 547.83 279.95 545.96 289.26 545.14 298.61 545.14 308.08 546.17 317.61 548.8 327.17 552.71 336.8 557.88 346.44 564.58 356.1 572.27 365.78 580.65 375.43 589.71 385.09 598.7 394.71 607.11 404.26 614.88 413.82 621.01 423.06 625.22 431.97 627.8 440.87 628.11 449.43 626.16 457.62 622.46 465.79 616.75 473.59 609.3 480.99 600.72 488.37 591.01 495.35 580.55 501.93 569.87 508.49 559.06 514.66 548.42 520.44 538.34 526.22 528.81 531.65 519.97 536.74 512.07 541.9 504.93 546.77 498.51 551.4 493.03 556.18 488.11 560.79 483.63 565.28 479.81 570.04 476.17 574.77 472.57 579.51 469.3 584.64 465.83 589.87 462.05 595.23 458.34 601.06 454.17 607.08 449.47 613.28 444.71 619.95 439.36 626.8 433.43 633.77 427.38 641.12 420.74 648.5 413.56 655.81 406.27 663.28 398.47 670.5 390.2 677.34 381.87 684.04 373.1 690.12 363.96 695.43 354.79 700.26 345.26 704.1 335.42 706.81 325.58 708.77 315.67 709.44 305.73 708.83 295.8 707.44 285.85 704.83 275.9 701.09 265.97 696.7 256.04 691.32 246.16 685.1 236.29 678.46 226.47 671.17 216.74 663.35 207.06 655.4 197.49 647.1 188.08 638.59 178.76 630.16 169.66 621.65 160.83 613.13 152.16 604.85 143.82 596.63 135.89 588.51 128.2 580.71 120.97 573.01 114.27 565.43 107.86 558.15 102.01 550.95 96.77 543.8 91.82 536.92 87.45 530.02 83.69 523.1 80.13 516.37 77.11 509.53 74.6 502.58 72.14 495.75 70.08 488.73 68.37 481.52 66.51 474.37 64.89 466.99 63.46 459.35 61.73 451.74 60.09 443.85 58.55 435.69 56.63 427.54 54.78 419.09 53.05 410.38 50.99 401.65 49.11 392.66 47.51 383.4 45.76 374.15 44.48 364.86 43.71 355.58 43.05 346.31 43.05 337.06 43.74 327.88 44.74 318.72 46.49 309.65 49.01 300.7 51.89 291.8 55.53 283.05 59.86 274.5 64.51 266.02 69.78 257.77 75.59 249.78 81.58 241.9 88 234.32 94.76 227.08 101.52 219.96 108.52 213.22 115.69 206.89 122.72 200.69 129.85 194.93 137.04 189.63 144 184.46 151.01 179.76 158.05 175.54 164.83 171.44 171.68 167.81 178.6 164.65 185.29 161.56 192.11 158.9 199.06 156.68 205.84 154.44 212.81 152.58 219.99 151.08 227.06 149.47 234.38 148.16 241.96 147.13 249.48 145.88 257.29 144.85 265.41 144.03 273.49 142.91 281.9 141.96 290.65 141.16 299.37 140.03 308.46 139.05 317.9 138.23" stroke-dasharray="6 1" transform="rotate(4.04, 320, 400)" opacity="0.24"></path><path d="M323.92 149.6C333.12 148.49 342.47 147.61 351.95 146.96 361.45 146.11 371.09 145.56 380.84 145.34 390.62 145.03 400.52 145.12 410.48 145.62 420.44 146.14 430.44 147.14 440.4 148.63 450.31 150.23 460.1 152.36 469.68 155.01 479.07 157.83 488.12 161.2 496.71 165.1 504.93 169.18 512.53 173.8 519.36 178.91 525.64 184.22 531.02 190 535.37 196.22 539.07 202.6 541.7 209.4 543.23 216.55 544.19 223.84 544.17 231.46 543.26 239.36 542.14 247.37 540.45 255.62 538.4 264.08 536.73 272.62 535.17 281.33 533.98 290.17 533.82 299.07 534.46 308.08 536.08 317.17 539.15 326.29 543.36 335.47 548.67 344.67 555.33 353.89 562.81 363.13 570.86 372.34 579.48 381.55 587.98 390.74 595.92 399.85 603.28 408.96 609.14 417.77 613.23 426.27 615.89 434.75 616.47 442.9 614.97 450.71 611.89 458.51 606.91 465.95 600.27 473.03 592.53 480.09 583.62 486.79 573.9 493.13 563.85 499.46 553.51 505.44 543.18 511.08 533.22 516.75 523.64 522.11 514.57 527.17 506.28 532.33 498.63 537.25 491.61 541.97 485.43 546.85 479.8 551.61 474.62 556.27 470.1 561.21 465.83 566.13 461.68 571.07 457.94 576.38 454.11 581.78 450.1 587.3 446.25 593.24 442.06 599.33 437.46 605.57 432.87 612.21 427.8 618.99 422.23 625.84 416.58 632.99 410.42 640.14 403.75 647.17 397 654.32 389.75 661.2 382.05 667.68 374.28 674 366.09 679.73 357.49 684.72 348.87 689.27 339.87 692.88 330.53 695.44 321.19 697.32 311.74 697.99 302.23 697.48 292.74 696.25 283.19 693.89 273.64 690.46 264.11 686.44 254.57 681.48 245.08 675.7 235.62 669.52 226.22 662.69 216.91 655.34 207.68 647.82 198.57 639.93 189.65 631.79 180.85 623.7 172.29 615.46 164.01 607.17 155.92 599.08 148.18 590.99 140.85 582.96 133.76 575.2 127.14 567.5 121.03 559.89 115.2 552.56 109.91 545.29 105.19 538.07 100.73 531.08 96.82 524.11 93.46 517.12 90.26 510.31 87.55 503.43 85.29 496.46 83.04 489.62 81.15 482.63 79.56 475.49 77.81 468.41 76.25 461.14 74.85 453.66 73.13 446.22 71.5 438.54 69.94 430.63 68.01 422.74 66.14 414.59 64.36 406.21 62.28 397.83 60.36 389.21 58.7 380.36 56.9 371.52 55.54 362.67 54.66 353.84 53.9 345.03 53.76 336.25 54.28 327.56 55.09 318.89 56.64 310.32 58.91 301.88 61.55 293.5 64.92 285.27 68.98 277.25 73.36 269.29 78.37 261.57 83.92 254.11 89.67 246.75 95.87 239.68 102.44 232.96 109.05 226.34 115.93 220.08 123.01 214.22 130 208.48 137.11 203.15 144.31 198.26 151.32 193.48 158.38 189.13 165.49 185.24 172.38 181.44 179.32 178.07 186.32 175.15 193.1 172.26 199.98 169.78 206.97 167.69 213.79 165.57 220.77 163.8 227.92 162.37 234.95 160.81 242.19 159.52 249.68 158.5 257.08 157.26 264.75 156.23 272.7 155.39 280.61 154.28 288.82 153.32 297.35 152.51 305.86 151.39 314.71 150.41 323.91 149.6" stroke-dasharray="7 2" transform="rotate(8.08, 320, 400)" opacity="0.22"></path><path d="M329.66 160.97C338.59 159.89 347.64 159.02 356.8 158.38 365.97 157.55 375.24 157 384.58 156.77 393.93 156.43 403.34 156.48 412.75 156.91 422.14 157.34 431.49 158.22 440.73 159.56 449.87 160.98 458.82 162.9 467.48 165.31 475.92 167.86 483.95 170.93 491.47 174.49 498.62 178.23 505.11 182.46 510.84 187.17 516.08 192.05 520.44 197.38 523.86 203.14 526.74 209.06 528.66 215.37 529.64 222.03 530.21 228.83 529.97 235.95 529.02 243.36 528.01 250.87 526.61 258.62 525 266.59 523.85 274.64 522.91 282.86 522.37 291.23 522.85 299.65 524.08 308.19 526.21 316.81 529.66 325.47 534.11 334.19 539.52 342.94 546.09 351.7 553.35 360.49 561.05 369.25 569.22 378.03 577.25 386.77 584.73 395.44 591.68 404.11 597.26 412.5 601.24 420.59 603.95 428.68 604.76 436.45 603.68 443.91 601.15 451.35 596.86 458.47 591 465.26 584.08 472.04 575.99 478.49 567.03 484.62 557.65 490.76 547.88 496.59 537.96 502.13 528.25 507.7 518.76 513.02 509.62 518.09 501.09 523.26 493.08 528.24 485.6 533.06 478.84 538.05 472.59 542.94 466.78 547.77 461.59 552.85 456.7 557.94 452 563.05 447.73 568.49 443.47 574.03 439.13 579.66 435.01 585.66 430.67 591.78 426.04 598.01 421.47 604.59 416.52 611.25 411.16 617.94 405.78 624.88 399.96 631.77 393.67 638.51 387.34 645.32 380.56 651.85 373.34 657.97 366.07 663.94 358.39 669.32 350.3 674 342.2 678.26 333.71 681.66 324.88 684.07 316.05 685.86 307.09 686.53 298.05 686.11 289.03 685.04 279.95 682.91 270.85 679.78 261.78 676.11 252.71 671.54 243.68 666.2 234.7 660.47 225.79 654.11 216.99 647.22 208.28 640.14 199.72 632.69 191.36 624.94 183.13 617.2 175.16 609.29 167.5 601.28 160.02 593.4 152.9 585.5 146.2 577.62 139.74 569.94 133.73 562.31 128.21 554.74 122.95 547.4 118.2 540.11 113.99 532.87 109.99 525.83 106.49 518.81 103.5 511.79 100.63 504.93 98.19 498.03 96.15 491.06 94.09 484.22 92.33 477.26 90.84 470.19 89.15 463.19 87.63 456.03 86.24 448.7 84.54 441.42 82.89 433.94 81.31 426.27 79.36 418.61 77.47 410.75 75.66 402.7 73.55 394.64 71.6 386.38 69.89 377.94 68.05 369.49 66.61 361.07 65.65 352.69 64.78 344.32 64.51 336.02 64.87 327.81 65.5 319.62 66.84 311.54 68.87 303.62 71.26 295.73 74.36 288.02 78.12 280.51 82.21 273.07 86.92 265.86 92.18 258.92 97.67 252.06 103.61 245.5 109.94 239.26 116.36 233.12 123.07 227.33 130.01 221.92 136.9 216.6 143.95 211.68 151.11 207.16 158.12 202.74 165.22 198.73 172.36 195.14 179.32 191.61 186.33 188.48 193.39 185.77 200.26 183.06 207.22 180.73 214.26 178.77 221.13 176.76 228.14 175.06 235.29 173.67 242.32 172.16 249.53 170.89 256.94 169.87 264.27 168.65 271.83 167.61 279.65 166.76 287.41 165.64 295.46 164.67 303.78 163.85 312.09 162.75 320.71 161.78 329.65 160.97" stroke-dasharray="8 3" transform="rotate(12.12, 320, 400)" opacity="0.62"></path><path d="M334.7 172.34C343.34 171.28 352.07 170.44 360.85 169.81 369.64 168.99 378.48 168.46 387.34 168.21 396.19 167.86 405.03 167.87 413.82 168.24 422.56 168.59 431.18 169.37 439.63 170.57 447.96 171.83 456.02 173.55 463.74 175.74 471.23 178.04 478.26 180.82 484.74 184.07 490.88 187.47 496.36 191.33 501.1 195.65 505.41 200.12 508.91 205.02 511.56 210.33 513.78 215.78 515.18 221.62 515.78 227.8 516.11 234.1 515.8 240.73 514.95 247.63 514.16 254.64 513.12 261.89 512 269.36 511.4 276.9 511.06 284.63 511.16 292.51 512.22 300.44 513.99 308.49 516.57 316.64 520.33 324.82 524.96 333.07 530.41 341.35 536.85 349.66 543.86 357.99 551.21 366.3 558.95 374.63 566.5 382.93 573.54 391.17 580.09 399.42 585.4 407.4 589.25 415.1 591.98 422.8 592.99 430.22 592.28 437.34 590.27 444.46 586.62 451.29 581.5 457.81 575.36 464.34 568.08 470.58 559.9 476.54 551.24 482.51 542.09 488.22 532.68 493.67 523.34 499.19 514.06 504.48 505.01 509.56 496.4 514.76 488.17 519.8 480.38 524.71 473.19 529.79 466.44 534.8 460.1 539.77 454.32 544.97 448.85 550.19 443.62 555.43 438.8 560.97 434.08 566.59 429.36 572.28 424.9 578.3 420.31 584.41 415.53 590.58 410.87 597.05 405.93 603.56 400.66 610.07 395.41 616.77 389.8 623.37 383.79 629.81 377.77 636.28 371.35 642.46 364.53 648.23 357.69 653.83 350.45 658.88 342.84 663.26 335.21 667.25 327.21 670.43 318.88 672.69 310.55 674.4 302.1 675.07 293.56 674.73 285.04 673.8 276.47 671.89 267.87 669.05 259.31 665.71 250.76 661.53 242.26 656.61 233.82 651.32 225.46 645.41 217.23 638.98 209.1 632.36 201.13 625.34 193.39 618.01 185.79 610.65 178.44 603.09 171.42 595.4 164.59 587.79 158.11 580.12 152.05 572.43 146.2 564.91 140.79 557.4 135.86 549.92 131.14 542.64 126.9 535.38 123.16 528.16 119.59 521.13 116.47 514.1 113.81 507.09 111.22 500.22 109.02 493.32 107.17 486.39 105.25 479.56 103.6 472.65 102.17 465.66 100.53 458.74 99.03 451.69 97.64 444.52 95.93 437.39 94.27 430.1 92.66 422.66 90.69 415.24 88.77 407.66 86.93 399.91 84.81 392.17 82.84 384.26 81.08 376.21 79.2 368.15 77.72 360.14 76.67 352.2 75.71 344.27 75.32 336.42 75.53 328.68 75.98 320.96 77.11 313.37 78.9 305.94 81.03 298.54 83.84 291.33 87.3 284.33 91.09 277.38 95.48 270.67 100.42 264.22 105.6 257.85 111.25 251.76 117.3 246 123.48 240.31 129.97 234.95 136.71 229.96 143.46 225.05 150.38 220.5 157.45 216.34 164.41 212.25 171.48 208.53 178.61 205.21 185.6 201.93 192.64 199.03 199.74 196.49 206.68 193.95 213.68 191.76 220.76 189.9 227.69 187.97 234.73 186.34 241.88 184.99 248.92 183.51 256.11 182.26 263.47 181.24 270.75 180.02 278.22 178.98 285.91 178.11 293.55 176.99 301.43 176.02 309.56 175.2 317.66 174.1 326.04 173.14 334.69 172.34" stroke-dasharray="1 9" transform="rotate(16.16, 320, 400)" opacity="0.46"></path><path d="M338.69 183.71C347.01 182.68 355.37 181.86 363.73 181.24 372.1 180.45 380.45 179.93 388.77 179.67 397.07 179.32 405.3 179.3 413.4 179.61 421.45 179.9 429.32 180.58 436.94 181.66 444.44 182.77 451.62 184.32 458.4 186.3 464.97 188.36 471.05 190.88 476.58 193.83 484.09 198.67 495.19 210.69 498.64 217.8 500.9 225.49 501.92 242.77 501.14 252.24 500.67 258.75 500.05 265.5 499.44 272.46 499.39 279.5 499.64 286.73 500.33 294.11 501.92 301.54 504.17 309.1 507.13 316.76 511.14 324.45 515.9 332.23 521.33 340.05 527.62 347.88 534.37 355.75 541.35 363.62 548.65 371.5 555.75 379.36 562.34 387.18 568.51 395 573.54 402.59 577.26 409.92 579.98 417.25 581.16 424.33 580.78 431.14 579.24 437.96 576.19 444.51 571.76 450.8 566.38 457.11 559.89 463.16 552.49 468.96 544.58 474.79 536.1 480.4 527.27 485.79 518.4 491.24 509.46 496.51 500.61 501.62 492.07 506.84 483.79 511.93 475.83 516.92 468.36 522.08 461.24 527.19 454.49 532.26 448.23 537.55 442.27 542.86 436.55 548.19 431.23 553.79 426.05 559.45 420.94 565.16 416.1 571.14 411.21 577.19 406.22 583.27 401.38 589.6 396.34 595.92 391.07 602.21 385.85 608.64 380.35 614.96 374.53 621.07 368.72 627.21 362.57 633.03 356.07 638.44 349.57 643.7 342.72 648.41 335.53 652.49 328.33 656.23 320.81 659.2 312.97 661.32 305.13 662.95 297.18 663.61 289.16 663.34 281.16 662.55 273.11 660.84 265.06 658.27 257.05 655.24 249.06 651.43 241.14 646.91 233.28 642.05 225.52 636.59 217.9 630.62 210.39 624.45 203.05 617.88 195.95 610.98 188.99 604.03 182.3 596.85 175.94 589.5 169.74 582.21 163.9 574.81 158.46 567.37 153.21 560.05 148.38 552.71 144 545.38 139.8 538.2 136.03 531.04 132.72 523.9 129.53 516.92 126.75 509.94 124.38 502.97 122.03 496.13 120.02 489.28 118.32 482.4 116.52 475.62 114.94 468.78 113.55 461.89 111.94 455.06 110.44 448.14 109.03 441.12 107.3 434.15 105.61 427.05 103.97 419.85 101.98 412.66 100.04 405.34 98.18 397.9 96.05 390.46 94.06 382.9 92.28 375.22 90.37 367.55 88.84 359.94 87.73 352.42 86.69 344.91 86.18 337.51 86.24 330.23 86.53 322.96 87.45 315.84 89.01 308.89 90.88 301.97 93.4 295.23 96.55 288.72 100.01 282.25 104.07 276.01 108.66 270.04 113.51 264.12 118.84 258.49 124.57 253.16 130.45 247.9 136.67 242.95 143.17 238.34 149.71 233.8 156.45 229.6 163.36 225.76 170.22 221.97 177.19 218.54 184.26 215.46 191.22 212.4 198.25 209.69 205.33 207.31 212.29 204.92 219.31 202.84 226.4 201.07 233.36 199.22 240.41 197.64 247.55 196.32 254.59 194.87 261.75 193.63 269.04 192.6 276.27 191.38 283.65 190.33 291.21 189.45 298.72 188.34 306.43 187.36 314.34 186.53 322.23 185.45 330.35 184.5 338.68 183.71" stroke-dasharray="8 9" transform="rotate(20.200000000000003, 320, 400)" opacity="0.15"></path><path d="M341.34 195.09C349.32 194.08 357.27 193.28 365.18 192.69 373.08 191.92 380.91 191.41 388.65 191.15 396.36 190.8 403.95 190.75 411.35 191.02 418.68 191.26 425.78 191.86 432.6 192.82 439.28 193.81 445.61 195.19 451.52 196.97 459.84 199.96 473.44 208.15 478.53 213.33 482.56 219.08 487.14 232.61 487.88 240.31 488.16 245.66 488.07 251.31 487.72 257.23 487.6 263.23 487.45 269.48 487.37 275.95 487.86 282.48 488.66 289.21 489.89 296.09 491.96 303.02 494.6 310.09 497.88 317.26 502.08 324.47 506.9 331.77 512.28 339.12 518.39 346.49 524.85 353.9 531.46 361.32 538.34 368.75 544.98 376.19 551.15 383.59 556.94 391 561.69 398.2 565.26 405.18 567.97 412.16 569.28 418.91 569.18 425.44 568.06 431.97 565.56 438.27 561.78 444.34 557.12 450.43 551.39 456.31 544.77 461.98 537.62 467.68 529.86 473.19 521.67 478.53 513.34 483.93 504.85 489.18 496.33 494.3 487.99 499.53 479.8 504.66 471.83 509.72 464.22 514.93 456.89 520.1 449.86 525.24 443.24 530.59 436.89 535.94 430.78 541.32 425.03 546.92 419.44 552.57 413.95 558.25 408.74 564.16 403.54 570.1 398.31 576.05 393.24 582.19 388.05 588.31 382.71 594.35 377.45 600.5 371.97 606.51 366.27 612.3 360.58 618.08 354.63 623.54 348.4 628.61 342.16 633.52 335.64 637.92 328.83 641.71 322.02 645.19 314.92 647.96 307.55 649.95 300.18 651.49 292.73 652.15 285.24 651.94 277.76 651.27 270.26 649.75 262.77 647.44 255.32 644.71 247.92 641.25 240.6 637.12 233.34 632.67 226.2 627.65 219.22 622.14 212.34 616.42 205.66 610.29 199.21 603.84 192.9 597.31 186.86 590.53 181.14 583.56 175.57 576.61 170.35 569.53 165.5 562.38 160.82 555.31 156.53 548.19 152.66 541.06 148.92 534.05 145.58 527.03 142.65 520.02 139.79 513.14 137.31 506.26 135.17 499.39 133.02 492.63 131.17 485.85 129.57 479.07 127.85 472.37 126.32 465.63 124.95 458.86 123.34 452.14 121.83 445.36 120.39 438.52 118.64 431.71 116.92 424.82 115.24 417.84 113.24 410.89 111.28 403.83 109.41 396.69 107.27 389.56 105.27 382.33 103.47 375.02 101.55 367.71 99.98 360.49 98.81 353.39 97.71 346.29 97.1 339.31 97.02 332.47 97.15 325.64 97.87 318.97 99.2 312.48 100.81 306.01 103.04 299.74 105.88 293.68 109.01 287.66 112.71 281.87 116.95 276.35 121.44 270.86 126.4 265.65 131.78 260.73 137.33 255.86 143.23 251.3 149.43 247.05 155.7 242.85 162.2 238.97 168.89 235.42 175.57 231.9 182.39 228.71 189.32 225.85 196.19 222.99 203.14 220.44 210.15 218.21 217.07 215.95 224.06 213.97 231.1 212.27 238.05 210.48 245.07 208.95 252.16 207.65 259.17 206.22 266.28 204.99 273.49 203.95 280.64 202.74 287.91 201.68 295.31 200.79 302.68 199.67 310.2 198.69 317.87 197.86 325.52 196.79 333.35 195.86 341.33 195.09" stroke-dasharray="1 8" transform="rotate(24.24, 320, 400)" opacity="0.95"></path><path d="M342.46 206.46C350.06 205.49 357.58 204.71 365 204.14 372.41 203.4 379.71 202.91 386.85 202.66 393.96 202.31 400.89 202.24 407.59 202.48 414.22 202.67 420.58 203.19 426.62 204.05 435.31 205.55 450.37 210.46 456.55 213.9 461.89 217.85 469.49 227.75 471.78 233.67 473.4 240.07 474.66 254.59 474.74 262.63 475.04 268.14 475.35 273.91 475.8 279.88 476.8 285.92 478.11 292.15 479.83 298.54 482.3 304.97 485.29 311.55 488.82 318.24 493.14 324.96 497.98 331.78 503.26 338.67 509.16 345.57 515.31 352.53 521.55 359.51 528 366.51 534.21 373.52 539.96 380.52 545.38 387.52 549.85 394.35 553.27 400.99 555.93 407.62 557.35 414.07 557.5 420.32 556.75 426.57 554.75 432.64 551.57 438.51 547.59 444.4 542.59 450.11 536.73 455.65 530.33 461.23 523.3 466.65 515.8 471.93 508.09 477.27 500.12 482.5 492.04 487.62 484.03 492.84 476.06 497.99 468.21 503.07 460.63 508.3 453.23 513.5 446.06 518.68 439.23 524.04 432.61 529.4 426.21 534.77 420.12 540.34 414.2 545.93 408.41 551.53 402.86 557.33 397.37 563.13 391.9 568.9 386.6 574.83 381.24 580.71 375.8 586.48 370.45 592.33 364.96 598.01 359.31 603.47 353.7 608.9 347.88 614.02 341.86 618.74 335.84 623.31 329.6 627.4 323.13 630.92 316.65 634.15 309.95 636.72 303.03 638.58 296.11 640.03 289.14 640.68 282.16 640.53 275.2 639.97 268.24 638.63 261.32 636.56 254.44 634.11 247.62 630.98 240.91 627.23 234.26 623.18 227.75 618.59 221.41 613.51 215.16 608.24 209.11 602.57 203.31 596.56 197.63 590.46 192.21 584.1 187.11 577.54 182.14 570.96 177.49 564.24 173.21 557.41 169.05 550.63 165.25 543.79 161.83 536.91 158.5 530.11 155.53 523.29 152.93 516.46 150.36 509.74 148.11 503.01 146.16 496.27 144.18 489.64 142.43 482.99 140.91 476.33 139.24 469.75 137.73 463.15 136.35 456.52 134.74 449.95 133.2 443.33 131.72 436.67 129.94 430.05 128.19 423.36 126.48 416.63 124.46 409.91 122.49 403.12 120.6 396.28 118.47 389.45 116.47 382.54 114.66 375.59 112.74 368.64 111.15 361.81 109.93 355.1 108.77 348.4 108.07 341.83 107.87 335.42 107.85 329.01 108.38 322.77 109.48 316.72 110.85 310.68 112.79 304.84 115.31 299.22 118.1 293.62 121.45 288.26 125.31 283.14 129.42 278.06 134 273.24 138.99 268.7 144.17 264.2 149.71 259.98 155.56 256.06 161.51 252.16 167.71 248.57 174.11 245.28 180.55 242.01 187.15 239.03 193.87 236.36 200.57 233.68 207.37 231.29 214.24 229.18 221.06 227.02 227.94 225.12 234.88 223.48 241.76 221.76 248.69 220.25 255.68 218.97 262.62 217.56 269.63 216.33 276.7 215.29 283.74 214.07 290.86 213.01 298.08 212.1 305.27 210.99 312.56 210.02 319.96 209.18 327.35 208.13 334.85 207.22 342.45 206.46" stroke-dasharray="4 7" transform="rotate(28.28, 320, 400)" opacity="0.94"></path><path d="M341.98 217.83C349.17 216.89 356.24 216.15 363.15 215.59 370.06 214.89 376.8 214.42 383.35 214.17 389.86 213.83 396.16 213.76 402.19 213.96 410.99 214.35 426.79 216.69 433.64 218.69 444.77 224.42 456.22 236.7 458.26 242.07 459.86 247.88 461.68 261.11 462.31 268.46 463.42 276.15 467.11 292.71 470.14 301.49 472.95 307.44 476.2 313.54 479.91 319.75 484.3 326 489.1 332.35 494.25 338.78 499.91 345.22 505.74 351.73 511.61 358.29 517.64 364.85 523.42 371.45 528.77 378.06 533.82 384.67 538.02 391.13 541.27 397.43 543.88 403.74 545.37 409.89 545.74 415.87 545.31 421.87 543.76 427.7 541.13 433.38 537.78 439.07 533.48 444.63 528.34 450.04 522.7 455.49 516.4 460.81 509.61 466.02 502.56 471.29 495.19 476.48 487.63 481.57 480.05 486.77 472.43 491.9 464.84 496.99 457.41 502.2 450.1 507.39 442.94 512.56 436.02 517.88 429.28 523.21 422.72 528.53 416.42 534.01 410.26 539.51 404.24 544.99 398.44 550.62 392.72 556.24 387.05 561.81 381.54 567.5 376.03 573.1 370.48 578.59 365.04 584.12 359.51 589.48 353.89 594.59 348.32 599.67 342.6 604.44 336.75 608.83 330.91 613.07 324.9 616.85 318.73 620.1 312.56 623.09 306.22 625.48 299.72 627.21 293.21 628.58 286.71 629.21 280.23 629.12 273.76 628.65 267.33 627.48 260.97 625.64 254.64 623.45 248.4 620.64 242.29 617.24 236.23 613.58 230.32 609.39 224.61 604.75 218.96 599.92 213.53 594.7 208.34 589.14 203.25 583.48 198.42 577.55 193.9 571.41 189.47 565.23 185.35 558.89 181.57 552.42 177.87 545.98 174.5 539.45 171.47 532.85 168.5 526.32 165.85 519.75 163.51 513.16 161.18 506.64 159.11 500.1 157.31 493.56 155.44 487.09 153.77 480.61 152.29 474.13 150.65 467.71 149.14 461.27 147.73 454.83 146.1 448.42 144.52 441.99 142.99 435.54 141.19 429.12 139.41 422.66 137.67 416.18 135.64 409.71 133.67 403.19 131.77 396.65 129.65 390.11 127.66 383.54 125.85 376.94 123.94 370.34 122.34 363.87 121.09 357.55 119.88 351.23 119.1 345.06 118.78 339.05 118.81 330.13 121.83 313.22 124.86 305.29 127.32 300.09 130.31 295.12 133.78 290.39 137.5 285.68 141.67 281.22 146.26 277.03 151.03 272.86 156.17 268.95 161.62 265.32 167.2 261.71 173.05 258.37 179.11 255.32 185.24 252.26 191.54 249.48 197.99 246.98 204.44 244.45 211.02 242.18 217.67 240.18 224.31 238.12 231.02 236.29 237.78 234.7 244.51 233.02 251.3 231.55 258.13 230.28 264.92 228.88 271.77 227.66 278.67 226.6 285.54 225.39 292.47 224.32 299.45 223.41 306.42 222.3 313.45 221.33 320.54 220.5 327.63 219.47 334.78 218.57 341.97 217.83" stroke-dasharray="1 4" transform="rotate(32.32, 320, 400)" opacity="0.15"></path><path d="M339.92 229.2C346.69 228.3 353.28 227.59 359.69 227.06 366.09 226.39 372.29 225.94 378.26 225.71 387.04 225.34 403.17 225.82 410.39 226.72 422.83 229.89 437.11 237.85 440.29 241.69 444.83 250.98 449.26 268.05 450.47 274.74 452.22 281.76 457.22 296.93 460.79 305.01 463.87 310.49 467.33 316.11 471.15 321.87 475.55 327.64 480.27 333.54 485.25 339.52 490.65 345.51 496.15 351.59 501.65 357.73 507.26 363.86 512.62 370.06 517.58 376.28 522.27 382.51 526.2 388.62 529.28 394.6 532.58 403.51 533.17 420.7 530.47 428.99 527.7 434.49 524.04 439.88 519.61 445.15 514.69 450.46 509.13 455.68 503.05 460.8 496.69 465.99 489.97 471.11 482.99 476.15 475.94 481.29 468.77 486.38 461.55 491.42 454.41 496.58 447.31 501.72 440.29 506.84 433.45 512.08 426.72 517.32 420.13 522.55 413.73 527.91 407.47 533.25 401.32 538.57 395.36 544.01 389.49 549.42 383.69 554.75 378.03 560.17 372.4 565.48 366.79 570.66 361.27 575.87 355.71 580.88 350.12 585.66 344.58 590.39 338.95 594.81 333.25 598.87 327.56 602.78 321.77 606.27 315.87 609.27 309.98 612.03 303.97 614.24 297.86 615.84 291.74 617.12 285.67 617.74 279.66 617.69 273.66 617.32 267.74 616.3 261.91 614.66 256.11 612.73 250.42 610.21 244.88 607.16 239.38 603.85 234.05 600.07 228.91 595.84 223.83 591.44 218.97 586.66 214.35 581.56 209.8 576.34 205.51 570.85 201.5 565.14 197.56 559.38 193.91 553.44 190.56 547.36 187.26 541.29 184.26 535.1 181.56 528.84 178.89 522.62 176.49 516.34 174.36 510.02 172.2 503.76 170.28 497.46 168.58 491.16 166.78 484.91 165.15 478.64 163.68 472.37 162.05 466.16 160.51 459.92 159.07 453.69 157.4 447.49 155.79 441.28 154.21 435.06 152.38 428.86 150.57 422.65 148.8 416.43 146.78 410.21 144.8 403.98 142.91 397.74 140.81 391.51 138.84 385.26 137.04 379.01 135.15 372.75 133.55 366.65 132.28 360.7 130.61 351.85 129.6 334.98 130.38 327.01 131.96 319.24 138 304.74 142.4 298.06 147.6 291.63 160.34 280 167.72 274.82 172.88 271.46 178.32 268.35 183.99 265.5 189.74 262.64 195.69 260.03 201.79 257.67 207.93 255.28 214.21 253.13 220.57 251.21 226.95 249.23 233.41 247.47 239.92 245.92 246.43 244.28 252.99 242.83 259.59 241.56 266.18 240.18 272.8 238.96 279.46 237.9 286.1 236.69 292.78 235.62 299.48 234.7 306.17 233.6 312.9 232.63 319.64 231.81 326.39 230.8 333.15 229.92 339.91 229.2" stroke-dasharray="9 1" transform="rotate(36.36, 320, 400)" opacity="0.87"></path><path d="M336.44 240.57C342.76 239.71 348.88 239.03 354.79 238.53 360.68 237.9 366.36 237.47 371.79 237.25 382.57 236.56 392.25 236.85 400.65 238.14 408.8 239.37 415.55 241.76 420.81 245.29 425.85 248.95 429.56 253.82 432.08 259.8 434.92 265.99 437.18 273.27 439.28 281.48 442.69 289.89 446.74 299.16 451.78 309.11 458.83 319.18 467.08 329.85 476.25 340.94 481.36 346.5 486.53 352.15 491.65 357.88 496.85 363.6 501.81 369.4 506.38 375.25 510.73 381.1 514.4 386.86 517.3 392.53 519.74 398.19 521.31 403.76 521.98 409.23 521.57 420.19 517.6 430.79 510.52 441.01 501.64 451.37 490.55 461.48 478.04 471.34 465.04 481.49 451.49 491.55 437.93 501.48 424.77 511.83 411.9 522.13 399.47 532.26 387.6 542.77 376.01 553 364.66 562.69 353.63 572.42 342.57 581.28 331.43 588.86 325.9 592.46 320.31 595.67 314.67 598.42 306.18 601.97 289 605.97 280.6 606.26 275.03 605.97 269.58 605.09 264.25 603.65 253.63 599.98 243.6 594.24 234.35 586.79 225.25 578.67 217.04 569.18 209.87 558.71 202.86 548.01 196.89 536.61 192.01 524.81 187.1 513.08 183.09 501.08 179.9 488.99 176.26 477.06 173.11 465.03 170.35 453.03 166.71 441.15 163.21 429.21 159.89 417.3 157.87 411.37 155.9 405.43 154.02 399.49 151.95 393.57 150.01 387.64 148.24 381.73 145.58 372.95 141.79 356.17 140.84 348.19 140.21 337.68 141.41 327.88 144.41 318.89 148.26 309.93 153.93 301.8 161.18 294.6 169.17 287.4 178.49 281.11 188.84 275.79 199.59 270.39 211.09 265.87 223.08 262.23 235.18 258.35 247.62 255.21 260.21 252.81 272.81 249.95 285.55 247.66 298.29 245.96 304.66 244.88 311.04 243.92 317.4 243.11 323.77 242.12 330.12 241.27 336.43 240.57" stroke-dasharray="2 4" transform="rotate(40.400000000000006, 320, 400)" opacity="0.71"></path><path d="M331.78 251.94C343.5 250.17 354.36 249.12 364.24 248.81 374.04 248.16 382.76 248.43 390.27 249.62 397.61 250.71 403.71 252.87 408.53 256.06 413.3 259.33 416.99 263.71 419.78 269.11 423.02 274.67 425.89 281.23 428.75 288.69 432.84 296.29 437.54 304.72 443.07 313.82 450.29 323.01 458.45 332.81 467.24 343.07 477.07 353.35 486.67 364.03 495.19 375 502.94 385.96 507.97 396.69 510.01 407.09 510.08 417.53 506.98 427.71 501.08 437.59 493.53 447.61 483.84 457.45 472.68 467.08 460.91 476.97 448.4 486.77 435.65 496.43 423.08 506.43 410.61 516.34 398.44 526.03 386.68 535.99 375.16 545.62 363.92 554.67 352.96 563.69 342.07 571.86 331.26 578.81 320.53 585.27 309.73 590.15 298.91 593.09 288.09 595.09 277.75 594.87 267.99 592.59 258.25 589.38 249.17 584.28 240.87 577.59 232.67 570.28 225.31 561.67 218.92 552.09 212.6 542.26 207.2 531.7 202.75 520.7 198.17 509.71 194.35 498.39 191.22 486.95 187.61 475.62 184.41 464.17 181.53 452.73 177.84 441.39 174.28 430.01 170.91 418.7 166.71 407.43 162.79 396.17 159.43 385.03 155.72 373.9 153.19 363.39 151.97 353.57 151.13 343.75 151.96 334.63 154.43 326.3 157.65 317.96 162.55 310.42 168.94 303.73 176.02 297.03 184.4 291.15 193.8 286.16 203.62 281.05 214.24 276.74 225.36 273.25 236.67 269.49 248.36 266.42 260.2 264.03 272.11 261.2 284.13 258.92 296.11 257.21 308.11 254.94 320.06 253.15 331.77 251.94" stroke-dasharray="2 3" transform="rotate(44.44, 320, 400)" opacity="0.36"></path><path d="M326.28 263.32C337.07 261.64 347.01 260.66 356 260.38 364.92 259.79 372.82 260.04 379.63 261.13 389.18 263.09 403.15 271.86 408.22 278.69 411.89 283.67 415.36 289.59 418.9 296.33 423.57 303.18 428.77 310.82 434.63 319.12 441.91 327.49 449.87 336.46 458.22 345.91 467.38 355.38 476.2 365.29 484 375.53 491.13 385.77 495.87 395.87 497.98 405.74 498.45 415.64 496.13 425.37 491.28 434.88 484.97 444.51 476.65 454.01 466.84 463.34 456.36 472.88 445.01 482.34 433.25 491.65 421.49 501.22 409.64 510.67 397.97 519.84 386.55 529.2 375.32 538.19 364.36 546.58 353.61 554.9 343 562.38 332.57 568.71 322.21 574.6 311.92 579.04 301.75 581.72 291.58 583.59 281.99 583.47 273.04 581.48 264.1 578.7 255.84 574.2 248.37 568.24 240.93 561.71 234.29 553.96 228.53 545.26 222.76 536.31 217.8 526.62 213.66 516.46 209.32 506.25 205.61 495.7 202.49 484.97 198.87 474.3 195.59 463.5 192.6 452.7 188.86 441.96 185.27 431.2 181.87 420.51 177.74 409.86 173.92 399.26 170.62 388.8 167.02 378.35 164.5 368.52 163.18 359.37 162.17 350.22 162.66 341.74 164.64 334 167.26 326.25 171.42 319.24 176.96 313.02 183.14 306.75 190.56 301.25 198.96 296.54 207.8 291.71 217.44 287.6 227.62 284.22 238.03 280.58 248.83 277.57 259.82 275.19 270.9 272.41 282.1 270.15 293.24 268.44 304.41 266.22 315.49 264.48 326.28 263.32" stroke-dasharray="2 0" transform="rotate(48.48, 320, 400)" opacity="0.71"></path><path d="M320.33 274.69C330.21 273.11 339.28 272.21 347.47 271.96 355.61 271.43 362.84 271.67 369.12 272.69 378.05 274.48 391.92 282.39 397.5 288.54 401.6 293 405.61 298.31 409.73 304.4 414.84 310.56 420.39 317.46 426.45 325.01 433.65 332.59 441.32 340.78 449.18 349.46 457.65 358.15 465.72 367.3 472.81 376.83 479.33 386.36 483.76 395.82 485.9 405.13 486.69 414.48 485.03 423.72 481.13 432.81 475.97 441.99 468.94 451.09 460.46 460.04 451.3 469.16 441.19 478.21 430.53 487.08 419.75 496.15 408.74 505.06 397.75 513.66 386.91 522.38 376.16 530.7 365.65 538.41 355.28 546.03 345.08 552.84 335.1 558.57 325.19 563.9 315.43 567.91 305.89 570.35 296.35 572.09 287.45 572.05 279.23 570.34 271 567.95 263.46 564.01 256.67 558.73 249.87 552.96 243.82 546.03 238.55 538.21 233.21 530.13 228.57 521.32 224.63 512.02 220.45 502.65 216.8 492.89 213.64 482.94 209.99 473.01 206.64 462.92 203.54 452.8 199.78 442.73 196.16 432.63 192.77 422.62 188.73 412.63 185.01 402.69 181.81 392.92 178.33 383.16 175.85 374 174.46 365.49 173.31 356.97 173.51 349.1 175.04 341.92 177.11 334.71 180.58 328.19 185.31 322.39 190.6 316.54 197.05 311.37 204.46 306.92 212.28 302.33 220.89 298.4 230.05 295.12 239.46 291.61 249.29 288.67 259.33 286.3 269.49 283.58 279.77 281.35 290 279.64 300.28 277.49 310.45 275.81 320.33 274.69" stroke-dasharray="5 10" transform="rotate(52.52, 320, 400)" opacity="0.94"></path><path d="M314.35 286.06C323.34 284.59 331.61 283.76 339.1 283.55 346.56 283.07 353.24 283.32 359.12 284.27 367.62 285.91 381.62 293.06 387.72 298.61 392.19 302.59 396.65 307.36 401.22 312.85 406.62 318.37 412.37 324.6 418.48 331.43 425.49 338.29 432.78 345.73 440.11 353.67 447.88 361.61 455.21 370.03 461.62 378.85 467.55 387.68 471.65 396.5 473.77 405.24 474.8 414 473.71 422.72 470.66 431.32 466.53 440.01 460.69 448.63 453.49 457.13 445.63 465.76 436.8 474.31 427.33 482.67 417.65 491.17 407.63 499.48 397.51 507.46 387.42 515.51 377.35 523.14 367.44 530.16 357.63 537.08 347.96 543.23 338.53 548.38 329.15 553.18 319.96 556.78 311.04 558.98 302.12 560.59 293.86 560.61 286.29 559.16 278.69 557.13 271.76 553.71 265.54 549.08 259.27 544.01 253.68 537.89 248.79 530.91 243.77 523.69 239.36 515.77 235.55 507.35 231.47 498.84 227.83 489.92 224.61 480.78 220.93 471.64 217.51 462.31 214.33 452.93 210.56 443.59 206.96 434.2 203.59 424.88 199.68 415.58 196.09 406.34 193.01 397.27 189.67 388.19 187.25 379.69 185.82 371.8 184.56 363.9 184.51 356.6 185.65 349.95 187.22 343.26 190.04 337.19 194.01 331.78 198.45 326.3 203.97 321.44 210.38 317.23 217.18 312.88 224.73 309.11 232.85 305.95 241.21 302.55 250 299.68 259.04 297.35 268.2 294.7 277.5 292.51 286.79 290.82 296.12 288.75 305.36 287.14 314.35 286.06" stroke-dasharray="9 6" transform="rotate(56.56, 320, 400)" opacity="0.68"></path><path d="M308.78 297.43C316.91 296.07 324.43 295.31 331.3 295.14 341.27 294.86 358.15 297.4 365.3 300.31 370.11 302.45 374.62 305.31 378.92 308.87 383.67 312.44 388.44 316.71 393.32 321.64 398.87 326.59 404.68 332.18 410.7 338.35 417.41 344.53 424.26 351.27 431.01 358.49 438.08 365.72 444.68 373.42 450.42 381.54 455.78 389.66 459.54 397.83 461.61 405.96 462.81 414.12 462.19 422.26 459.86 430.33 456.65 438.46 451.91 446.55 445.9 454.53 439.3 462.59 431.73 470.57 423.49 478.35 414.99 486.23 406.06 493.89 396.93 501.21 387.76 508.56 378.52 515.49 369.37 521.83 360.26 528.05 351.25 533.55 342.45 538.14 333.7 542.43 325.12 545.64 316.83 547.61 308.54 549.09 300.89 549.16 293.89 547.94 286.87 546.23 280.47 543.29 274.71 539.27 268.89 534.87 263.66 529.51 259.04 523.36 254.28 516.98 250.03 509.93 246.28 502.39 242.27 494.75 238.63 486.7 235.34 478.4 231.64 470.08 228.18 461.56 224.94 452.97 221.2 444.39 217.65 435.75 214.34 427.17 210.59 418.59 207.15 410.07 204.2 401.7 201.03 393.32 198.7 385.48 197.25 378.2 195.93 370.9 195.67 364.16 196.46 358 197.59 351.8 199.83 346.16 203.09 341.12 206.75 336 211.38 331.43 216.84 327.44 222.63 323.32 229.14 319.72 236.21 316.66 243.5 313.4 251.23 310.61 259.23 308.33 267.35 305.76 275.65 303.63 283.97 301.98 292.33 299.99 300.65 298.46 308.78 297.43" stroke-dasharray="1 4" transform="rotate(60.599999999999994, 320, 400)" opacity="0.33"></path><path d="M304.01 308.8C311.32 307.55 318.14 306.87 324.45 306.73 333.68 306.52 349.85 308.91 357.02 311.58 364.23 314.8 378.5 324.39 385.99 330.72 391.54 335.14 397.26 340.15 403.07 345.7 409.39 351.24 415.72 357.31 421.88 363.85 428.24 370.39 434.13 377.4 439.24 384.82 444.03 392.24 447.45 399.74 449.42 407.23 450.72 414.75 450.47 422.28 448.77 429.76 446.35 437.28 442.59 444.77 437.69 452.15 432.26 459.6 425.92 466.94 418.89 474.08 411.6 481.28 403.81 488.26 395.76 494.89 387.62 501.52 379.33 507.74 371.04 513.39 362.76 518.93 354.52 523.81 346.45 527.86 338.4 531.65 330.5 534.49 322.85 536.23 315.21 537.58 308.14 537.7 301.68 536.68 295.18 535.27 289.24 532.77 283.88 529.31 278.43 525.54 273.51 520.9 269.1 515.54 264.54 509.97 260.41 503.78 256.71 497.11 252.75 490.34 249.11 483.17 245.78 475.73 242.09 468.27 238.61 460.58 235.37 452.8 231.7 445.02 228.23 437.17 225.02 429.34 221.44 421.52 218.19 413.73 215.39 406.07 212.41 398.41 210.19 391.22 208.76 384.54 207.19 374.74 209.1 357.63 212.58 350.32 215.52 345.55 219.33 341.27 223.89 337.5 228.73 333.62 234.24 330.19 240.29 327.25 246.52 324.14 253.2 321.45 260.17 319.22 267.24 316.76 274.53 314.7 281.89 313.1 289.29 311.22 296.71 309.77 304.01 308.8" stroke-dasharray="0 4" transform="rotate(64.64, 320, 400)" opacity="0.62"></path><path d="M300.39 320.17C309.98 318.74 327.39 318.19 335.23 319.13 342.87 320.45 357.22 325.79 364.23 329.83 369.19 332.68 374.17 336.1 379.17 340.04 384.58 343.97 390.06 348.44 395.55 353.39 401.39 358.35 407.17 363.78 412.7 369.66 418.35 375.53 423.55 381.85 428.05 388.56 432.28 395.28 435.35 402.09 437.21 408.92 438.55 415.76 438.59 422.64 437.4 429.48 435.65 436.34 432.74 443.18 428.83 449.91 424.49 456.68 419.29 463.34 413.44 469.8 407.32 476.28 400.71 482.54 393.76 488.46 386.71 494.36 379.44 499.87 372.1 504.85 364.75 509.72 357.37 514 350.09 517.53 342.81 520.85 335.64 523.34 328.67 524.86 321.69 526.08 315.22 526.23 309.26 525.39 303.27 524.24 297.77 522.15 292.75 519.21 287.65 516.02 282.99 512.06 278.76 507.44 274.39 502.65 270.37 497.29 266.71 491.47 262.83 485.56 259.22 479.26 255.88 472.7 252.24 466.09 248.8 459.26 245.59 452.31 242.04 445.36 238.69 438.31 235.62 431.27 232.25 424.23 229.2 417.19 226.58 410.26 223.81 403.32 221.72 396.79 220.33 390.71 218.72 381.78 219.79 366.09 222.5 359.33 226.33 352.92 237.85 342.12 245.21 337.7 250.45 334.74 256.11 332.18 262.08 330.03 268.14 327.69 274.45 325.73 280.87 324.2 287.33 322.43 293.87 321.07 300.39 320.17" stroke-dasharray="8 7" transform="rotate(68.68, 320, 400)" opacity="0.65"></path><path d="M298.16 331.55C309.68 329.34 320.35 329.14 329.98 330.75 339.88 331.97 349.3 335.27 358.26 340.44 368.19 345.49 378.27 352.55 388.1 361.35 398.9 370.12 408.95 380.65 416.85 392.67 423.99 404.68 426.93 417.12 425.78 429.39 422.96 441.74 416.36 453.98 407.07 465.45 396.89 476.93 384.91 487.47 372.25 496.2 359.47 504.54 346.41 510.61 333.86 513.49 321.3 515.39 310.33 513.68 301.02 508.97 291.45 503.46 283.17 495.34 276.18 485.45 268.47 475.22 261.54 463.61 255.59 451.42 248.59 439.18 242.43 426.53 237.78 414.12 232.62 401.71 230.07 390.67 230.14 381.23 230.68 371.67 234.12 363.54 240.01 357.03 246.5 350.17 255.13 344.67 265.14 340.75 275.4 336.2 286.64 333 298.16 331.55" stroke-dasharray="10 6" transform="rotate(72.72, 320, 400)" opacity="0.82"></path><path d="M297.5 342.92C307.56 340.99 317.21 340.87 326.21 342.36 335.44 343.52 344.44 346.49 353.09 351.09 362.42 355.55 371.78 361.76 380.7 369.49 390.22 377.17 398.91 386.42 405.66 397 411.83 407.58 414.55 418.56 413.93 429.38 412.11 440.25 407.12 450.98 399.77 460.97 391.69 470.93 381.88 479.99 371.23 487.43 360.43 494.54 349.15 499.69 338.06 502.12 326.97 503.82 317.05 502.47 308.44 498.59 299.63 494.1 291.8 487.35 285.04 479.03 277.71 470.42 271.08 460.52 265.37 450.02 258.88 439.47 253.22 428.45 248.97 417.54 244.32 406.62 241.93 396.82 241.77 388.35 241.89 379.79 244.45 372.41 249.11 366.42 254.17 360.15 261.14 355.05 269.44 351.37 277.91 347.2 287.44 344.26 297.5 342.92" stroke-dasharray="4 4" transform="rotate(76.76, 320, 400)" opacity="0.91"></path><path d="M298.45 354.29C307.09 352.64 315.65 352.59 323.87 353.95 332.25 355.04 340.57 357.69 348.6 361.71 357.08 365.62 365.47 371 373.31 377.68 381.49 384.32 388.83 392.29 394.47 401.43 399.69 410.56 402.12 420.02 401.89 429.33 400.83 438.67 397.2 447.84 391.54 456.32 385.35 464.74 377.57 472.35 368.86 478.54 360.02 484.46 350.54 488.73 340.97 490.75 331.4 492.23 322.61 491.2 314.8 488.07 306.83 484.51 299.59 479.03 293.21 472.19 286.43 465.12 280.24 456.9 274.91 448.06 269.04 439.18 263.96 429.8 260.16 420.41 256.06 411.01 253.89 402.47 253.58 395.02 253.42 387.48 255.27 380.91 258.88 375.51 262.74 369.88 268.25 365.27 275.01 361.89 281.87 358.14 289.8 355.5 298.45 354.29" stroke-dasharray="1 11" transform="rotate(80.80000000000001, 320, 400)" opacity="0.94"></path><path d="M300.94 365.66C308.19 364.29 315.57 364.3 322.81 365.51 330.16 366.52 337.53 368.83 344.65 372.28 352.03 375.63 359.26 380.2 365.89 385.84 372.68 391.44 378.7 398.15 383.28 405.81 387.57 413.47 389.66 421.38 389.68 429.14 389.17 436.9 386.63 444.48 382.44 451.44 377.88 458.35 371.92 464.54 365.05 469.53 358.07 474.32 350.38 477.76 342.38 479.38 334.38 480.63 326.82 479.87 319.93 477.43 312.95 474.68 306.46 470.38 300.65 464.92 294.58 459.3 289.01 452.68 284.22 445.47 279.07 438.22 274.65 430.48 271.35 422.63 267.84 414.78 265.94 407.55 265.56 401.16 265.89 391.86 274.29 377.34 281.8 372.29 287.23 369.03 293.69 366.72 300.94 365.66" stroke-dasharray="7 6" transform="rotate(84.84, 320, 400)" opacity="0.20"></path><path d="M304.79 377.03C316.5 374.66 329.31 376.93 341.08 382.73 353.38 388.23 364.86 397.67 372.08 410.01 378.6 422.34 378.28 435.36 372.54 446.31 365.92 457.08 354.98 465.29 342.18 468 329.39 469.8 317.23 465.46 307.35 457.24 296.85 448.59 287.82 436.74 282.54 424.15 276.7 411.55 276.2 400.58 280.24 392.68 284.46 384.39 293.08 378.6 304.79 377.03" stroke-dasharray="4 10" transform="rotate(88.88, 320, 400)" opacity="0.43"></path><path d="M309.73 388.4C318.62 386.66 328.59 388.52 337.73 393.02 347.08 397.35 355.64 404.59 360.89 413.9 365.76 423.2 365.79 432.86 361.94 440.88 357.64 448.77 349.96 454.71 340.4 456.63 330.84 458.05 321.3 455.03 313.31 449.13 305.02 443 297.89 434.36 293.74 424.91 289.25 415.45 288.76 406.97 291.65 400.72 294.56 394.25 300.84 389.68 309.73 388.4" stroke-dasharray="1 8" transform="rotate(92.92, 320, 400)" opacity="0.72"></path><path d="M315.41 399.77C327.43 397.32 342.82 404.87 349.7 417.35 355.9 429.81 349.81 442.63 337.16 445.26 324.5 447 310.51 437.49 304.93 424.88 298.74 412.27 303.38 401.4 315.41 399.77" stroke-dasharray="11 2" transform="rotate(96.96, 320, 400)" opacity="0.16"></path></g></svg>