<svg id="svg" version="1.1" xmlns="http://www.w3.org/2000/svg"
    xmlns:xlink="http://www.w3.org/1999/xlink" width="400" height="400" viewBox="0, 0, 400,400">
    <g id="svgg">
        <path id="path0"
            d="M44.043 164.462 C 42.275 164.970,23.885 183.219,22.996 185.348 C 22.263 187.102,22.108 212.763,22.819 214.674 C 23.376 216.172,41.842 234.725,43.487 235.440 C 45.109 236.145,71.247 236.264,73.074 235.575 C 74.385 235.080,92.537 217.178,93.530 215.400 C 94.708 213.291,94.527 186.322,93.322 184.400 C 91.823 182.010,74.758 165.308,73.113 164.621 C 71.374 163.895,46.489 163.759,44.043 164.462 M71.313 168.956 C 73.008 169.688,89.068 185.898,89.389 187.200 C 89.524 187.750,89.582 193.914,89.517 200.897 L 89.400 213.594 81.000 222.024 C 70.381 232.680,72.967 231.600,58.080 231.600 L 45.720 231.600 44.160 230.446 C 41.568 228.528,27.284 213.882,26.826 212.674 C 26.108 210.777,26.258 188.219,27.000 186.657 C 27.736 185.106,42.935 169.876,44.600 169.021 C 46.285 168.156,69.330 168.100,71.313 168.956 M54.247 183.218 C 43.956 185.812,38.240 198.030,42.843 207.600 C 49.840 222.150,70.424 220.711,75.569 205.313 C 79.771 192.738,67.388 179.907,54.247 183.218 M158.582 185.382 L 157.600 186.364 157.600 199.800 L 157.600 213.236 158.582 214.218 C 159.678 215.314,161.781 215.541,162.946 214.689 C 165.079 213.129,165.079 186.471,162.946 184.911 C 161.781 184.059,159.678 184.286,158.582 185.382 M275.382 185.382 L 274.400 186.364 274.400 199.738 C 274.400 214.547,274.397 214.527,277.006 215.030 C 278.901 215.395,280.313 214.047,280.644 211.557 C 281.253 206.965,283.179 206.906,286.544 211.377 C 288.951 214.575,290.752 215.600,292.981 215.041 C 295.254 214.470,294.895 213.002,291.216 207.822 C 287.540 202.648,287.526 202.855,291.907 197.667 C 294.205 194.947,294.375 194.086,292.767 193.316 C 290.961 192.450,289.016 193.346,285.562 196.636 C 281.043 200.941,280.801 200.778,280.798 193.420 C 280.795 187.720,280.372 185.427,279.209 184.805 C 277.933 184.122,276.412 184.351,275.382 185.382 M375.382 185.382 C 374.556 186.208,374.396 186.763,374.372 188.882 C 374.326 193.030,374.359 193.000,369.734 193.000 C 363.025 193.000,360.378 195.810,360.070 203.261 C 359.679 212.713,364.780 217.570,372.140 214.754 C 374.187 213.970,374.478 213.951,376.075 214.491 C 378.330 215.254,379.786 214.788,380.369 213.117 C 380.963 211.413,380.953 188.159,380.358 186.451 C 379.580 184.221,377.080 183.684,375.382 185.382 M113.600 186.374 C 102.342 189.811,100.877 209.054,111.477 214.259 C 124.722 220.763,137.118 206.677,130.449 192.702 C 127.805 187.163,120.277 184.336,113.600 186.374 M204.500 186.998 C 203.144 187.973,203.297 188.722,207.252 200.513 C 212.149 215.112,212.199 215.200,215.594 215.200 C 219.428 215.200,219.499 215.079,224.562 199.874 C 228.297 188.656,228.437 187.952,227.111 187.023 C 223.787 184.695,222.531 186.441,218.525 198.966 C 215.901 207.167,215.422 206.770,211.011 192.737 C 209.169 186.877,207.147 185.095,204.500 186.998 M64.345 190.209 C 70.911 193.783,72.177 203.061,66.828 208.410 C 59.694 215.544,47.241 210.389,47.209 200.287 C 47.180 191.426,56.504 185.941,64.345 190.209 M322.416 189.675 C 321.967 190.157,321.600 190.696,321.600 190.874 C 321.600 191.052,320.996 191.873,320.258 192.699 C 318.211 194.988,317.944 195.678,318.622 196.932 C 318.940 197.519,319.469 198.495,319.798 199.100 C 320.235 199.905,320.398 201.540,320.406 205.200 C 320.424 212.949,321.933 215.234,327.230 215.534 C 333.377 215.881,335.259 211.454,329.490 210.218 C 327.197 209.726,326.800 208.834,326.800 204.174 C 326.800 199.118,327.001 198.663,329.624 197.792 C 333.192 196.607,333.166 193.760,329.577 192.794 C 328.354 192.465,327.643 191.917,326.699 190.578 C 325.250 188.522,323.779 188.212,322.416 189.675 M121.927 192.412 C 126.588 195.254,126.370 206.718,121.606 209.257 C 116.250 212.112,111.404 208.191,111.401 201.000 C 111.399 193.418,116.607 189.168,121.927 192.412 M142.861 192.826 C 134.345 194.519,134.012 202.490,142.307 206.046 C 147.648 208.335,146.728 211.125,140.805 210.600 C 137.900 210.343,137.658 210.382,137.083 211.202 C 133.795 215.897,147.047 217.528,151.252 212.946 C 154.759 209.125,153.121 204.678,147.098 201.671 C 142.638 199.444,142.950 197.369,147.674 197.835 C 151.668 198.228,153.555 196.081,150.988 194.062 C 150.085 193.352,149.220 193.120,145.600 192.619 C 145.050 192.542,143.817 192.636,142.861 192.826 M176.800 192.956 C 164.462 196.484,166.654 215.565,179.400 215.587 C 193.408 215.612,194.336 194.324,180.400 192.657 C 179.410 192.538,177.790 192.673,176.800 192.956 M239.800 192.657 C 231.768 194.605,228.369 202.406,232.169 210.172 C 234.383 214.698,241.779 217.180,247.074 215.173 C 251.191 213.614,250.692 209.215,246.529 210.371 C 242.134 211.591,237.378 209.788,238.196 207.212 C 238.546 206.110,239.338 205.926,244.714 205.699 C 250.327 205.461,251.200 204.963,251.200 201.996 C 251.200 196.307,245.158 191.358,239.800 192.657 M304.861 192.826 C 296.392 194.510,296.041 202.503,304.282 206.035 C 309.452 208.251,308.758 211.158,303.191 210.599 C 299.999 210.278,298.967 210.519,298.670 211.654 C 297.446 216.336,309.547 217.306,313.315 212.828 C 316.770 208.721,315.387 204.905,309.313 201.793 C 304.658 199.408,304.844 197.359,309.674 197.835 C 313.668 198.228,315.555 196.081,312.988 194.062 C 312.085 193.352,311.220 193.120,307.600 192.619 C 307.050 192.542,305.817 192.636,304.861 192.826 M343.349 193.135 C 336.033 195.664,333.491 204.805,338.210 211.615 C 341.436 216.270,353.111 217.314,354.580 213.079 C 355.306 210.989,354.598 210.583,350.471 210.722 C 346.505 210.856,344.919 210.363,343.795 208.648 C 342.381 206.491,343.486 205.967,350.000 205.706 C 356.064 205.462,356.404 205.268,356.391 202.038 C 356.365 195.397,349.790 190.909,343.349 193.135 M264.486 193.866 L 262.371 194.866 260.773 194.033 C 256.432 191.770,256.000 192.676,256.000 204.035 C 256.000 214.325,256.231 215.200,258.953 215.200 C 261.659 215.200,262.330 213.527,262.376 206.660 C 262.411 201.453,263.387 199.827,267.073 198.834 C 269.112 198.285,270.160 197.125,270.160 195.417 C 270.160 192.636,268.213 192.104,264.486 193.866 M243.111 198.223 C 244.697 199.334,244.064 201.040,241.995 201.232 C 238.842 201.524,237.495 200.137,239.368 198.526 C 240.622 197.448,241.861 197.347,243.111 198.223 M348.334 198.239 C 350.520 199.770,348.572 201.859,345.534 201.242 C 343.033 200.735,343.950 197.600,346.600 197.600 C 347.052 197.600,347.832 197.887,348.334 198.239 M182.285 199.280 C 184.411 201.277,184.473 206.789,182.393 208.868 C 179.941 211.320,176.582 210.121,175.606 206.446 C 174.054 200.600,178.553 195.774,182.285 199.280 M372.151 198.554 C 376.547 200.391,375.342 210.000,370.715 210.000 C 365.514 210.000,364.696 199.531,369.800 198.288 C 370.240 198.181,370.651 198.072,370.713 198.046 C 370.775 198.021,371.422 198.249,372.151 198.554 "
            stroke="none" fill="#1f76ec" fill-rule="evenodd"></path>
        <path id="path1"
            d="M0.000 200.000 L 0.000 400.000 200.000 400.000 L 400.000 400.000 400.000 200.000 L 400.000 0.000 200.000 0.000 L 0.000 0.000 0.000 200.000 M73.113 164.621 C 74.758 165.308,91.823 182.010,93.322 184.400 C 94.527 186.322,94.708 213.291,93.530 215.400 C 92.537 217.178,74.385 235.080,73.074 235.575 C 71.247 236.264,45.109 236.145,43.487 235.440 C 41.842 234.725,23.376 216.172,22.819 214.674 C 22.108 212.763,22.263 187.102,22.996 185.348 C 23.885 183.219,42.275 164.970,44.043 164.462 C 46.489 163.759,71.374 163.895,73.113 164.621 M44.600 169.021 C 42.935 169.876,27.736 185.106,27.000 186.657 C 26.258 188.219,26.108 210.777,26.826 212.674 C 27.284 213.882,41.568 228.528,44.160 230.446 L 45.720 231.600 58.080 231.600 C 72.967 231.600,70.381 232.680,81.000 222.024 L 89.400 213.594 89.517 200.897 C 89.582 193.914,89.524 187.750,89.389 187.200 C 89.068 185.898,73.008 169.688,71.313 168.956 C 69.330 168.100,46.285 168.156,44.600 169.021 M66.176 184.358 C 83.713 192.992,77.176 218.319,57.614 217.533 C 40.253 216.836,34.973 193.055,50.358 184.855 C 55.069 182.344,61.664 182.137,66.176 184.358 M162.946 184.911 C 165.079 186.471,165.079 213.129,162.946 214.689 C 161.781 215.541,159.678 215.314,158.582 214.218 L 157.600 213.236 157.600 199.800 L 157.600 186.364 158.582 185.382 C 159.678 184.286,161.781 184.059,162.946 184.911 M279.209 184.805 C 280.372 185.427,280.795 187.720,280.798 193.420 C 280.801 200.778,281.043 200.941,285.562 196.636 C 289.016 193.346,290.961 192.450,292.767 193.316 C 294.375 194.086,294.205 194.947,291.907 197.667 C 287.526 202.855,287.540 202.648,291.216 207.822 C 294.895 213.002,295.254 214.470,292.981 215.041 C 290.752 215.600,288.951 214.575,286.544 211.377 C 283.179 206.906,281.253 206.965,280.644 211.557 C 280.313 214.047,278.901 215.395,277.006 215.030 C 274.397 214.527,274.400 214.547,274.400 199.738 L 274.400 186.364 275.382 185.382 C 276.412 184.351,277.933 184.122,279.209 184.805 M379.184 184.792 C 380.607 185.553,380.800 187.348,380.800 199.800 C 380.800 215.070,380.504 215.990,376.075 214.491 C 374.478 213.951,374.187 213.970,372.140 214.754 C 364.780 217.570,359.679 212.713,360.070 203.261 C 360.378 195.810,363.025 193.000,369.734 193.000 C 374.359 193.000,374.326 193.030,374.372 188.882 C 374.413 185.229,376.572 183.393,379.184 184.792 M125.059 187.228 C 135.327 192.617,134.476 210.767,123.768 214.779 C 111.059 219.541,100.401 207.271,105.588 193.848 C 108.302 186.822,118.002 183.525,125.059 187.228 M208.823 187.420 C 209.220 187.780,210.205 190.173,211.011 192.737 C 215.422 206.770,215.901 207.167,218.525 198.966 C 222.083 187.842,222.837 186.400,225.093 186.400 C 226.627 186.400,228.000 187.438,228.000 188.597 C 228.000 189.600,221.708 208.830,220.304 212.120 C 218.627 216.048,213.477 216.505,211.653 212.887 C 210.537 210.672,203.600 189.783,203.600 188.636 C 203.600 186.545,206.985 185.757,208.823 187.420 M54.699 189.347 C 42.860 193.761,45.847 211.577,58.429 211.596 C 73.555 211.619,74.319 189.601,59.215 188.923 C 57.296 188.836,55.654 188.991,54.699 189.347 M326.699 190.578 C 327.643 191.917,328.354 192.465,329.577 192.794 C 333.166 193.760,333.192 196.607,329.624 197.792 C 327.001 198.663,326.800 199.118,326.800 204.174 C 326.800 208.834,327.197 209.726,329.490 210.218 C 335.259 211.454,333.377 215.881,327.230 215.534 C 321.933 215.234,320.424 212.949,320.406 205.200 C 320.398 201.540,320.235 199.905,319.798 199.100 C 319.469 198.495,318.940 197.519,318.622 196.932 C 317.944 195.678,318.211 194.988,320.258 192.699 C 320.996 191.873,321.600 191.052,321.600 190.874 C 321.600 188.469,325.070 188.267,326.699 190.578 M114.759 192.501 C 110.120 195.575,110.120 205.960,114.759 209.085 C 121.444 213.587,128.159 203.934,124.262 195.423 C 122.537 191.655,118.096 190.289,114.759 192.501 M148.288 193.012 C 153.762 193.837,153.184 198.378,147.674 197.835 C 142.950 197.369,142.638 199.444,147.098 201.671 C 153.121 204.678,154.759 209.125,151.252 212.946 C 147.047 217.528,133.795 215.897,137.083 211.202 C 137.658 210.382,137.900 210.343,140.805 210.600 C 146.728 211.125,147.648 208.335,142.307 206.046 C 133.036 202.072,135.691 191.245,145.600 192.619 C 146.150 192.695,147.360 192.872,148.288 193.012 M184.097 193.684 C 192.369 197.224,192.436 210.816,184.200 214.659 C 176.867 218.081,169.431 213.375,168.887 204.968 C 168.285 195.668,175.765 190.118,184.097 193.684 M246.216 193.811 C 250.259 195.748,252.602 201.709,250.414 204.492 C 249.671 205.436,249.359 205.502,244.714 205.699 C 239.338 205.926,238.546 206.110,238.196 207.212 C 237.378 209.788,242.134 211.591,246.529 210.371 C 250.692 209.215,251.191 213.614,247.074 215.173 C 241.779 217.180,234.383 214.698,232.169 210.172 C 228.369 202.406,231.768 194.605,239.800 192.657 C 241.251 192.305,244.168 192.830,246.216 193.811 M310.288 193.012 C 315.762 193.837,315.184 198.378,309.674 197.835 C 304.844 197.359,304.658 199.408,309.313 201.793 C 315.387 204.905,316.770 208.721,313.315 212.828 C 309.547 217.306,297.446 216.336,298.670 211.654 C 298.967 210.519,299.999 210.278,303.191 210.599 C 308.758 211.158,309.452 208.251,304.282 206.035 C 295.058 202.081,297.736 191.252,307.600 192.619 C 308.150 192.695,309.360 192.872,310.288 193.012 M349.551 193.023 C 353.654 194.241,356.375 197.827,356.391 202.038 C 356.404 205.268,356.064 205.462,350.000 205.706 C 343.486 205.967,342.381 206.491,343.795 208.648 C 344.919 210.363,346.505 210.856,350.471 210.722 C 354.598 210.583,355.306 210.989,354.580 213.079 C 353.111 217.314,341.436 216.270,338.210 211.615 C 331.781 202.338,339.317 189.983,349.551 193.023 M269.631 193.437 C 271.148 195.266,269.806 198.098,267.073 198.834 C 263.387 199.827,262.411 201.453,262.376 206.660 C 262.330 213.527,261.659 215.200,258.953 215.200 C 256.231 215.200,256.000 214.325,256.000 204.035 C 256.000 192.676,256.432 191.770,260.773 194.033 L 262.371 194.866 264.486 193.866 C 266.955 192.699,268.885 192.538,269.631 193.437 M239.368 198.526 C 237.495 200.137,238.842 201.524,241.995 201.232 C 244.064 201.040,244.697 199.334,243.111 198.223 C 241.861 197.347,240.622 197.448,239.368 198.526 M344.866 198.239 C 342.643 199.796,344.931 202.026,347.934 201.230 C 350.162 200.639,349.045 197.600,346.600 197.600 C 346.148 197.600,345.368 197.887,344.866 198.239 M178.155 198.377 C 175.907 199.325,174.716 203.095,175.606 206.446 C 177.044 211.863,183.093 211.198,183.799 205.546 C 184.416 200.606,181.537 196.950,178.155 198.377 M369.800 198.288 C 366.053 199.200,365.099 207.003,368.447 209.348 C 372.596 212.254,376.425 206.477,374.138 200.762 C 373.579 199.366,371.505 197.721,370.713 198.046 C 370.651 198.072,370.240 198.181,369.800 198.288 "
            stroke="none" fill="#fbfbfb" fill-rule="evenodd"></path>
    </g>
</svg>